<svg width="14" height="16" viewBox="0 0 14 16" fill="none" xmlns="http://www.w3.org/2000/svg">
<path d="M13.5625 8.07031C13.5417 8.54948 13.4688 9.03125 13.3438 9.51562C13.2188 9.99479 13.0312 10.4349 12.7812 10.8359C12.5312 11.237 12.2057 11.5599 11.8047 11.8047C11.4089 12.0443 10.9297 12.1641 10.3672 12.1641C10.0078 12.1641 9.69271 12.1016 9.42188 11.9766C9.15625 11.8464 8.9375 11.6615 8.76562 11.4219C8.59896 11.1823 8.48177 10.8932 8.41406 10.5547C8.35156 10.2161 8.34115 9.83854 8.38281 9.42188L8.78125 5.09375H9.92969L9.53125 9.42188C9.5 9.80208 9.50781 10.112 9.55469 10.3516C9.60677 10.5911 9.6849 10.776 9.78906 10.9062C9.89323 11.0312 10.0104 11.1172 10.1406 11.1641C10.276 11.2109 10.4062 11.2344 10.5312 11.2344C10.8438 11.2344 11.1224 11.1536 11.3672 10.9922C11.612 10.8255 11.8177 10.599 11.9844 10.3125C12.1562 10.0208 12.2891 9.6849 12.3828 9.30469C12.4766 8.91927 12.5339 8.50781 12.5547 8.07031C12.5911 7.29427 12.5547 6.58073 12.4453 5.92969C12.3411 5.27865 12.1615 4.70052 11.9062 4.19531C11.6562 3.6901 11.3281 3.26302 10.9219 2.91406C10.5156 2.5651 10.0312 2.29948 9.46875 2.11719C8.90625 1.9349 8.26302 1.84375 7.53906 1.84375C6.88281 1.84375 6.27604 1.94531 5.71875 2.14844C5.16667 2.34635 4.66927 2.63281 4.22656 3.00781C3.78906 3.38281 3.41146 3.83333 3.09375 4.35938C2.78125 4.88542 2.53385 5.47917 2.35156 6.14062C2.17448 6.79688 2.07031 7.50521 2.03906 8.26562C2.0026 9.04688 2.04427 9.76562 2.16406 10.4219C2.28385 11.0729 2.47656 11.6536 2.74219 12.1641C3.01302 12.6797 3.35417 13.1146 3.76562 13.4688C4.17708 13.8281 4.65365 14.099 5.19531 14.2812C5.73698 14.4688 6.34115 14.5625 7.00781 14.5625C7.46615 14.5625 7.92969 14.5078 8.39844 14.3984C8.8724 14.2891 9.26823 14.1406 9.58594 13.9531L9.88281 14.8438C9.51823 15.0781 9.0625 15.2526 8.51562 15.3672C7.97396 15.4818 7.46094 15.5391 6.97656 15.5391C6.1849 15.5391 5.46094 15.4297 4.80469 15.2109C4.15365 14.9974 3.57552 14.6823 3.07031 14.2656C2.57031 13.8542 2.15365 13.3516 1.82031 12.7578C1.48698 12.1693 1.24219 11.4974 1.08594 10.7422C0.929688 9.98698 0.869792 9.16146 0.90625 8.26562C0.942708 7.41146 1.07031 6.60677 1.28906 5.85156C1.51302 5.09635 1.81771 4.41146 2.20312 3.79688C2.58854 3.18229 3.04688 2.65365 3.57812 2.21094C4.11458 1.76302 4.71615 1.41927 5.38281 1.17969C6.05469 0.940104 6.78385 0.820312 7.57031 0.820312C8.3724 0.820312 9.09896 0.929688 9.75 1.14844C10.401 1.36719 10.9714 1.68229 11.4609 2.09375C11.9557 2.50521 12.3646 3.00781 12.6875 3.60156C13.0104 4.19531 13.2448 4.86719 13.3906 5.61719C13.5417 6.36719 13.599 7.1849 13.5625 8.07031ZM5.53906 8.73438C5.5026 9.09896 5.5026 9.42448 5.53906 9.71094C5.57552 9.9974 5.64583 10.2396 5.75 10.4375C5.85417 10.6354 5.98958 10.7865 6.15625 10.8906C6.32812 10.9896 6.52865 11.0391 6.75781 11.0391C6.90885 11.0391 7.06771 11.0026 7.23438 10.9297C7.40104 10.8516 7.5651 10.7318 7.72656 10.5703C7.88802 10.4089 8.03906 10.1979 8.17969 9.9375C8.32031 9.67708 8.4375 9.36458 8.53125 9L9.04688 9.5625C8.92708 9.98958 8.77083 10.3646 8.57812 10.6875C8.39062 11.0104 8.17969 11.2812 7.94531 11.5C7.71094 11.7188 7.46094 11.8854 7.19531 12C6.9349 12.1094 6.66927 12.1641 6.39844 12.1641C6.01823 12.1641 5.6849 12.0833 5.39844 11.9219C5.11198 11.7552 4.88021 11.5208 4.70312 11.2188C4.52604 10.9167 4.40104 10.5573 4.32812 10.1406C4.26042 9.71875 4.25 9.25 4.29688 8.73438C4.34375 8.1875 4.4401 7.68229 4.58594 7.21875C4.73177 6.75521 4.91146 6.34115 5.125 5.97656C5.34375 5.61198 5.58854 5.30208 5.85938 5.04688C6.13542 4.79167 6.42708 4.59896 6.73438 4.46875C7.04167 4.33333 7.35677 4.26562 7.67969 4.26562C8.24219 4.26562 8.6849 4.34896 9.00781 4.51562C9.33073 4.67708 9.63802 4.86979 9.92969 5.09375L9.26562 5.86719C9.11458 5.72135 8.91667 5.58594 8.67188 5.46094C8.42708 5.33594 8.13802 5.27344 7.80469 5.27344C7.51823 5.27344 7.25 5.34635 7 5.49219C6.75 5.63802 6.52344 5.85677 6.32031 6.14844C6.1224 6.4401 5.95573 6.80208 5.82031 7.23438C5.6849 7.66146 5.59115 8.16146 5.53906 8.73438Z" fill="#737373"/>
</svg>
