<svg width="19" height="13" viewBox="0 0 19 13" fill="none" xmlns="http://www.w3.org/2000/svg">
<path d="M5.53125 1.63281L1.76562 12H0.226562L4.5625 0.625H5.55469L5.53125 1.63281ZM8.6875 12L4.91406 1.63281L4.89062 0.625H5.88281L10.2344 12H8.6875ZM8.49219 7.78906V9.02344H2.10156V7.78906H8.49219ZM16.5234 10.5547V6.20312C16.5234 5.86979 16.4557 5.58073 16.3203 5.33594C16.1901 5.08594 15.9922 4.89323 15.7266 4.75781C15.4609 4.6224 15.1328 4.55469 14.7422 4.55469C14.3776 4.55469 14.0573 4.61719 13.7812 4.74219C13.5104 4.86719 13.2969 5.03125 13.1406 5.23438C12.9896 5.4375 12.9141 5.65625 12.9141 5.89062H11.4688C11.4688 5.58854 11.5469 5.28906 11.7031 4.99219C11.8594 4.69531 12.0833 4.42708 12.375 4.1875C12.6719 3.94271 13.026 3.75 13.4375 3.60938C13.8542 3.46354 14.3177 3.39062 14.8281 3.39062C15.4427 3.39062 15.9844 3.49479 16.4531 3.70312C16.9271 3.91146 17.2969 4.22656 17.5625 4.64844C17.8333 5.0651 17.9688 5.58854 17.9688 6.21875V10.1562C17.9688 10.4375 17.9922 10.737 18.0391 11.0547C18.0911 11.3724 18.1667 11.6458 18.2656 11.875V12H16.7578C16.6849 11.8333 16.6276 11.612 16.5859 11.3359C16.5443 11.0547 16.5234 10.7943 16.5234 10.5547ZM16.7734 6.875L16.7891 7.89062H15.3281C14.9167 7.89062 14.5495 7.92448 14.2266 7.99219C13.9036 8.05469 13.6328 8.15104 13.4141 8.28125C13.1953 8.41146 13.0286 8.57552 12.9141 8.77344C12.7995 8.96615 12.7422 9.19271 12.7422 9.45312C12.7422 9.71875 12.8021 9.96094 12.9219 10.1797C13.0417 10.3984 13.2214 10.5729 13.4609 10.7031C13.7057 10.8281 14.0052 10.8906 14.3594 10.8906C14.8021 10.8906 15.1927 10.7969 15.5312 10.6094C15.8698 10.4219 16.138 10.1927 16.3359 9.92188C16.5391 9.65104 16.6484 9.38802 16.6641 9.13281L17.2812 9.82812C17.2448 10.0469 17.1458 10.2891 16.9844 10.5547C16.8229 10.8203 16.6068 11.0755 16.3359 11.3203C16.0703 11.5599 15.7526 11.7604 15.3828 11.9219C15.0182 12.0781 14.6068 12.1562 14.1484 12.1562C13.5755 12.1562 13.0729 12.0443 12.6406 11.8203C12.2135 11.5964 11.8802 11.2969 11.6406 10.9219C11.4062 10.5417 11.2891 10.1172 11.2891 9.64844C11.2891 9.19531 11.3776 8.79688 11.5547 8.45312C11.7318 8.10417 11.987 7.8151 12.3203 7.58594C12.6536 7.35156 13.0547 7.17448 13.5234 7.05469C13.9922 6.9349 14.5156 6.875 15.0938 6.875H16.7734Z" fill="#737373"/>
</svg>
