<svg width="10" height="13" viewBox="0 0 10 13" fill="none" xmlns="http://www.w3.org/2000/svg">
<path d="M7.03906 9.04688C7.03906 8.82812 7.00521 8.63281 6.9375 8.46094C6.875 8.28385 6.75781 8.125 6.58594 7.98438C6.41927 7.83854 6.18229 7.69792 5.875 7.5625C5.57292 7.42188 5.18229 7.27604 4.70312 7.125C4.17188 6.95833 3.67708 6.77083 3.21875 6.5625C2.76042 6.35417 2.35677 6.11198 2.00781 5.83594C1.66406 5.5599 1.39583 5.24219 1.20312 4.88281C1.01042 4.51823 0.914062 4.09635 0.914062 3.61719C0.914062 3.14844 1.01302 2.72135 1.21094 2.33594C1.41406 1.95052 1.70052 1.61979 2.07031 1.34375C2.4401 1.0625 2.875 0.846354 3.375 0.695312C3.88021 0.544271 4.4375 0.46875 5.04688 0.46875C5.89062 0.46875 6.61979 0.622396 7.23438 0.929688C7.85417 1.23698 8.33333 1.65365 8.67188 2.17969C9.01042 2.70573 9.17969 3.29688 9.17969 3.95312H7.03906C7.03906 3.59896 6.96354 3.28646 6.8125 3.01562C6.66667 2.74479 6.44271 2.53125 6.14062 2.375C5.84375 2.21875 5.46875 2.14062 5.01562 2.14062C4.57812 2.14062 4.21354 2.20573 3.92188 2.33594C3.63542 2.46615 3.41927 2.64323 3.27344 2.86719C3.13281 3.09115 3.0625 3.34115 3.0625 3.61719C3.0625 3.82552 3.11198 4.01302 3.21094 4.17969C3.3099 4.34115 3.45833 4.49479 3.65625 4.64062C3.85417 4.78125 4.09896 4.91406 4.39062 5.03906C4.6875 5.15885 5.03125 5.27865 5.42188 5.39844C6.04688 5.58594 6.59375 5.79427 7.0625 6.02344C7.53646 6.2526 7.92969 6.51302 8.24219 6.80469C8.5599 7.09635 8.79688 7.42448 8.95312 7.78906C9.11458 8.15365 9.19531 8.56771 9.19531 9.03125C9.19531 9.52083 9.09896 9.95833 8.90625 10.3438C8.71354 10.7292 8.4375 11.0573 8.07812 11.3281C7.71875 11.599 7.28646 11.8047 6.78125 11.9453C6.28125 12.0859 5.72135 12.1562 5.10156 12.1562C4.54948 12.1562 4.0026 12.0833 3.46094 11.9375C2.92448 11.7865 2.4375 11.5625 2 11.2656C1.5625 10.9635 1.21354 10.5833 0.953125 10.125C0.692708 9.66146 0.5625 9.11979 0.5625 8.5H2.71875C2.71875 8.85938 2.77604 9.16667 2.89062 9.42188C3.01042 9.67188 3.17708 9.8776 3.39062 10.0391C3.60938 10.1953 3.86458 10.3099 4.15625 10.3828C4.44792 10.4557 4.76302 10.4922 5.10156 10.4922C5.53906 10.4922 5.89844 10.4323 6.17969 10.3125C6.46615 10.1875 6.67969 10.0156 6.82031 9.79688C6.96615 9.57812 7.03906 9.32812 7.03906 9.04688Z" fill="#737373"/>
<path d="M0 8H9.76562V8.79688H0V8Z" fill="#737373"/>
</svg>
