<svg width="9" height="12" viewBox="0 0 9 12" fill="none" xmlns="http://www.w3.org/2000/svg">
<path d="M4.44531 6.92969H1.53906L1.52344 5.41406H4.01562C4.44271 5.41406 4.79948 5.35417 5.08594 5.23438C5.3724 5.11458 5.58854 4.9401 5.73438 4.71094C5.88542 4.48177 5.96094 4.20312 5.96094 3.875C5.96094 3.51042 5.89062 3.21354 5.75 2.98438C5.61458 2.75521 5.40104 2.58854 5.10938 2.48438C4.81771 2.375 4.44792 2.32031 4 2.32031H2.23438V12H0.0859375V0.625H4C4.64583 0.625 5.22135 0.6875 5.72656 0.8125C6.23698 0.932292 6.66927 1.11979 7.02344 1.375C7.3776 1.63021 7.64583 1.95052 7.82812 2.33594C8.01562 2.72135 8.10938 3.17969 8.10938 3.71094C8.10938 4.17969 8 4.61198 7.78125 5.00781C7.56771 5.39844 7.23698 5.71615 6.78906 5.96094C6.34635 6.20573 5.78385 6.34635 5.10156 6.38281L4.44531 6.92969ZM4.35156 12H0.90625L1.80469 10.3125H4.35156C4.77865 10.3125 5.13021 10.2422 5.40625 10.1016C5.6875 9.96094 5.89583 9.76823 6.03125 9.52344C6.17188 9.27344 6.24219 8.98698 6.24219 8.66406C6.24219 8.3099 6.17969 8.0026 6.05469 7.74219C5.9349 7.48177 5.74219 7.28125 5.47656 7.14062C5.21615 7 4.8724 6.92969 4.44531 6.92969H2.21094L2.22656 5.41406H5.07031L5.5625 6C6.21875 6.00521 6.7526 6.13542 7.16406 6.39062C7.58073 6.64583 7.88802 6.97396 8.08594 7.375C8.28385 7.77604 8.38281 8.20833 8.38281 8.67188C8.38281 9.40104 8.22396 10.013 7.90625 10.5078C7.59375 11.0026 7.13542 11.375 6.53125 11.625C5.93229 11.875 5.20573 12 4.35156 12Z" fill="#737373"/>
</svg>
